<svg width="672" height="758" xmlns="http://www.w3.org/2000/svg" xmlns:xlink="http://www.w3.org/1999/xlink" overflow="hidden"><defs><clipPath id="clip0"><rect x="42" y="-1" width="672" height="758"></rect></clipPath></defs><g clip-path="url(#clip0)" transform="translate(-42 1)"><path d="M705.965 207.134C699.736 189.751 690.343 175.133 677.589 163.182 664.933 151.231 650.201 142.243 633.293 136.218 624.395 133.354 612.431 131.28 597.204 129.798 582.077 128.317 570.509 128.909 562.303 131.477 558.249 132.761 555.184 134.342 553.008 136.119 550.833 137.897 548.757 140.86 546.878 144.91 521.072 157.75 501.397 175.825 487.653 198.937 474.009 222.147 472.526 248.617 483.105 278.248 494.476 310.052 513.854 331.188 541.342 341.856 568.729 352.523 597.106 353.115 626.372 343.732 655.638 334.349 679.171 317.361 696.869 292.965 714.765 268.668 717.731 240.024 705.965 207.134M623.901 249.605C620.638 253.26 616.683 256.025 612.036 257.902 602.84 261.852 590.382 262.248 582.275 257.902 574.266 253.556 565.071 256.716 562.303 241.012 562.698 233.901 562.104 226.197 566.653 220.863 571.102 215.629 576.639 211.283 582.67 208.616 593.448 204.072 611.047 206.74 617.078 213.06 623.208 219.48 628.251 222.641 629.635 236.568 629.833 241.802 627.262 245.951 623.901 249.605M189.452 378.4C164.14 379.783 141.4 389.659 121.23 408.129 101.059 426.599 88.0082 449.217 82.0761 475.885 76.0446 502.553 83.1635 527.245 103.334 549.962 114.012 562.012 126.371 570.605 140.411 575.74 154.451 580.877 169.084 582.852 184.409 581.667 192.418 580.778 202.701 578.111 215.159 573.667 227.617 569.321 236.615 564.58 242.25 559.444 245.019 556.876 246.898 554.505 248.084 552.135 249.171 549.863 249.863 546.703 250.061 542.653 266.375 522.603 276.065 500.479 279.229 476.379 282.393 452.279 274.879 429.859 256.686 409.315 237.208 387.289 214.763 377.017 189.452 378.4M205.173 489.219C202.701 498.305 196.67 502.355 191.627 506.898 184.113 513.714 158.208 514.8 151.979 496.034 150.694 492.281 150.595 488.231 151.287 483.984 152.869 475.391 159.691 463.045 167.304 458.699 174.918 454.353 185.398 453.86 190.342 456.23 201.218 460.477 205.371 470.156 206.458 475.589 207.645 481.021 206.557 483.984 205.173 489.219Z" fill="#79BD28" fill-rule="evenodd"></path><path d="M439.321 388.108C440.211 365.253 440.013 342.893 437.837 319.643 437.144 312.223 435.363 309.353 429.625 305.396 423.887 301.537 418.05 299.558 412.213 299.46 411.223 299.46 410.036 299.46 408.552 299.361 407.068 299.361 405.387 299.756 403.408 300.647 403.408 300.647 402.122 281.552 379.466 279.969 379.466 279.969 360.668 276.803 352.259 294.018 351.368 292.138 349.687 290.951 347.213 290.456 344.74 289.961 342.563 289.665 340.585 289.565 333.659 289.467 327.921 291.643 323.37 296.195 318.72 300.745 316.346 306.286 316.049 312.816 315.653 323.105 315.851 334.088 316.742 345.861 317.731 357.536 318.423 368.617 319.017 378.808 320.105 399.387 318.522 516.628 317.632 537.207 316.346 566.196 308.926 590.633 295.273 610.421 281.62 630.209 257.48 642.972 223.447 639.014 115.411 626.548 133.714 718.362 213.455 750.023 223.447 753.98 262.822 757.344 273.409 755.464 387.578 735.478 422.106 635.552 422.106 635.552 445.652 581.136 438.727 524.84 440.508 483.682 441.497 461.322 438.331 411.061 439.321 388.108M480.774 136.806C480.279 134.035 478.795 130.77 476.421 127.11 478.201 99.3083 472.662 73.6834 459.899 50.1359 447.137 26.5889 425.767 11.1547 395.79 3.83336 363.735-4.08173 336.627 0.271334 314.367 16.7941 292.206 33.3164 277.959 55.9735 271.628 84.6656 265.296 113.457 268.066 141.555 279.938 169.059 291.81 196.564 314.367 214.373 347.51 222.486 365.021 226.839 381.939 227.037 398.065 223.179 414.192 219.32 428.834 212.196 441.992 201.808 448.72 196.168 456.238 187.561 464.846 176.084 473.354 164.607 478.499 154.911 480.279 146.996 481.071 142.841 481.17 139.576 480.774 136.806M396.581 131.364C393.317 135.816 390.348 137.004 385.402 139.477 377.091 143.632 369.968 141.753 363.24 140.961 353.149 139.774 333.659 120.778 341.969 102.177 343.751 98.2197 346.521 95.0541 350.181 92.3825 357.799 86.9408 372.639 82.9832 381.939 86.2486 391.14 89.5135 399.154 98.1208 400.737 104.156 404.892 116.424 400.044 126.714 396.581 131.364Z" fill="#00518E" fill-rule="evenodd"></path><path d="M250.799 180.927C248.427 177.569 246.055 175.199 243.683 173.619 241.311 172.137 237.951 170.952 233.504 170.261 213.936 149.817 191.107 136.386 165.017 129.769 138.926 123.152 113.231 128.386 87.8329 145.571 60.5562 163.94 45.8311 187.05 43.4592 214.802 40.9886 242.554 48.4993 268.627 65.6954 293.021 82.9899 317.514 105.819 334.698 134.182 344.673 162.645 354.648 190.909 350.204 218.976 331.143 233.899 321.069 245.166 308.823 253.072 294.107 260.879 279.491 265.326 263.787 266.315 246.899 266.512 238.11 265.129 226.555 262.263 212.333 259.397 198.21 255.542 187.741 250.799 180.927M185.869 244.233C183.102 254.504 176.283 259.146 170.551 264.281 162.052 271.985 132.898 273.17 125.881 251.936 124.399 247.591 124.3 243.048 125.189 238.307 126.869 228.53 134.677 214.506 143.275 209.568 151.873 204.729 163.633 204.037 169.167 206.802 181.422 211.642 186.067 222.703 187.352 228.826 188.735 234.949 187.549 238.307 185.869 244.233M678.82 455.582C676.349 442.644 673.088 433.064 668.838 426.941 666.763 423.88 664.688 421.707 662.513 420.324 660.438 418.942 657.375 417.954 653.421 417.262 636.028 398.794 615.669 386.646 592.247 380.721 568.825 374.795 545.601 379.832 522.475 395.733 497.669 412.72 484.031 433.953 481.462 459.433 478.892 484.815 485.217 508.617 500.436 530.739 515.656 552.96 536.015 568.466 561.512 577.453 587.01 586.44 612.606 582.095 638.103 564.516 651.642 555.232 662.019 543.874 669.333 530.443 676.547 517.011 680.797 502.592 681.883 487.185 682.378 479.087 681.29 468.52 678.82 455.582M610.629 484.321C608.257 493.21 602.328 497.358 597.485 501.802 590.172 508.518 565.168 509.604 559.14 491.037 557.855 487.284 557.756 483.334 558.547 479.087 560.03 470.593 566.651 458.347 574.063 454.001 581.475 449.755 591.555 449.162 596.299 451.631 606.775 455.878 610.827 465.458 611.914 470.89 613.1 476.124 612.013 479.087 610.629 484.321Z" fill="#F08000" fill-rule="evenodd"></path></g></svg>